{
	"asset":{
		"generator":"Khronos glTF Blender I/O v3.6.27",
		"version":"2.0"
	},
	"scene":0,
	"scenes":[
		{
			"name":"Scene",
			"nodes":[
				0
			]
		}
	],
	"nodes":[
		{
			"mesh":0,
			"name":"Torus.001_0",
			"rotation":[
				0,
				0,
				0.7071068286895752,
				0.7071068286895752
			],
			"scale":[
				0.09223883599042892,
				0.09223883599042892,
				0.09223884344100952
			]
		}
	],
	"materials":[
		{
			"doubleSided":true,
			"name":"buoyyellow",
			"pbrMetallicRoughness":{
				"baseColorFactor":[
					0.8000000715255737,
					0.7682795524597168,
					0.21304386854171753,
					1
				],
				"metallicFactor":0,
				"roughnessFactor":0.5
			}
		}
	],
	"meshes":[
		{
			"name":"Torus.001_0",
			"primitives":[
				{
					"attributes":{
						"POSITION":0,
						"NORMAL":1
					},
					"indices":2,
					"material":0
				}
			]
		}
	],
	"accessors":[
		{
			"bufferView":0,
			"componentType":5126,
			"count":16362,
			"max":[
				12.656709671020508,
				4.726830005645752,
				4.734469890594482
			],
			"min":[
				-1.205899953842163,
				-4.972259998321533,
				-4.964630126953125
			],
			"type":"VEC3"
		},
		{
			"bufferView":1,
			"componentType":5126,
			"count":16362,
			"type":"VEC3"
		},
		{
			"bufferView":2,
			"componentType":5123,
			"count":96024,
			"type":"SCALAR"
		}
	],
	"bufferViews":[
		{
			"buffer":0,
			"byteLength":196344,
			"byteOffset":0,
			"target":34962
		},
		{
			"buffer":0,
			"byteLength":196344,
			"byteOffset":196344,
			"target":34962
		},
		{
			"buffer":0,
			"byteLength":192048,
			"byteOffset":392688,
			"target":34963
		}
	],
	"buffers":[
		{
			"byteLength":584736,
			"uri":"data:application/octet-stream;base64,"
		}
	]
}
