{
	"asset":{
		"generator":"Khronos glTF Blender I/O v3.6.27",
		"version":"2.0"
	},
	"scene":0,
	"scenes":[
		{
			"name":"Scene",
			"nodes":[
				0,
				1
			]
		}
	],
	"nodes":[
		{
			"mesh":0,
			"name":"Icosphere.001",
			"scale":[
				0.1433107852935791,
				0.1744895577430725,
				0.4258823096752167
			],
			"translation":[
				4.514912128448486,
				0.03198477253317833,
				-0.23740363121032715
			]
		},
		{
			"mesh":1,
			"name":"Text.001",
			"rotation":[
				0.05554047226905823,
				-0.7049221992492676,
				0.05554047226905823,
				0.7049221396446228
			],
			"scale":[
				0.4872162640094757,
				0.487216591835022,
				0.487216591835022
			],
			"translation":[
				-4.949376583099365,
				0.20899195969104767,
				-0.17640498280525208
			]
		}
	],
	"materials":[
		{
			"doubleSided":true,
			"name":"Wood Grip",
			"pbrMetallicRoughness":{
				"baseColorFactor":[
					0.984054684638977,
					1,
					0.9682583212852478,
					1
				],
				"metallicFactor":0
			}
		},
		{
			"doubleSided":true,
			"name":"Wood",
			"pbrMetallicRoughness":{
				"baseColorFactor":[
					0.8000000715255737,
					0.5778229832649231,
					0.33052703738212585,
					1
				],
				"metallicFactor":0
			}
		},
		{
			"doubleSided":true,
			"name":"Carbon",
			"pbrMetallicRoughness":{
				"metallicFactor":0.5745454430580139,
				"roughnessFactor":0.11272728443145752
			}
		}
	],
	"meshes":[
		{
			"name":"Icosphere.001",
			"primitives":[
				{
					"attributes":{
						"POSITION":0,
						"NORMAL":1,
						"TEXCOORD_0":2
					},
					"indices":3,
					"material":0
				},
				{
					"attributes":{
						"POSITION":4,
						"NORMAL":5,
						"TEXCOORD_0":6
					},
					"indices":7,
					"material":1
				},
				{
					"attributes":{
						"POSITION":8,
						"NORMAL":9,
						"TEXCOORD_0":10
					},
					"indices":11,
					"material":2
				}
			]
		},
		{
			"name":"Text.001",
			"primitives":[
				{
					"attributes":{
						"POSITION":12,
						"NORMAL":13,
						"TEXCOORD_0":14
					},
					"indices":15
				}
			]
		}
	],
	"accessors":[
		{
			"bufferView":0,
			"componentType":5126,
			"count":63,
			"max":[
				0.9510578513145447,
				1,
				0.9999999403953552
			],
			"min":[
				-0.9510578513145447,
				-1,
				-0.9999999403953552
			],
			"type":"VEC3"
		},
		{
			"bufferView":1,
			"componentType":5126,
			"count":63,
			"type":"VEC3"
		},
		{
			"bufferView":2,
			"componentType":5126,
			"count":63,
			"type":"VEC2"
		},
		{
			"bufferView":3,
			"componentType":5123,
			"count":240,
			"type":"SCALAR"
		},
		{
			"bufferView":4,
			"componentType":5126,
			"count":370,
			"max":[
				-0.7097434997558594,
				3.8219246864318848,
				0.2010939121246338
			],
			"min":[
				-48.84480285644531,
				-0.6280772686004639,
				-0.38932111859321594
			],
			"type":"VEC3"
		},
		{
			"bufferView":5,
			"componentType":5126,
			"count":370,
			"type":"VEC3"
		},
		{
			"bufferView":6,
			"componentType":5126,
			"count":370,
			"type":"VEC2"
		},
		{
			"bufferView":7,
			"componentType":5123,
			"count":1716,
			"type":"SCALAR"
		},
		{
			"bufferView":8,
			"componentType":5126,
			"count":306,
			"max":[
				-42.14116287231445,
				3.679013252258301,
				2.2260384559631348
			],
			"min":[
				-70.6549301147461,
				-0.37210988998413086,
				-2.4142613410949707
			],
			"type":"VEC3"
		},
		{
			"bufferView":9,
			"componentType":5126,
			"count":306,
			"type":"VEC3"
		},
		{
			"bufferView":10,
			"componentType":5126,
			"count":306,
			"type":"VEC2"
		},
		{
			"bufferView":11,
			"componentType":5123,
			"count":1224,
			"type":"SCALAR"
		},
		{
			"bufferView":12,
			"componentType":5126,
			"count":1779,
			"max":[
				0.8602848052978516,
				-0.1527796983718872,
				0.3679966926574707
			],
			"min":[
				-0.9979240894317627,
				-0.15283071994781494,
				-0.24477338790893555
			],
			"type":"VEC3"
		},
		{
			"bufferView":13,
			"componentType":5126,
			"count":1779,
			"type":"VEC3"
		},
		{
			"bufferView":14,
			"componentType":5126,
			"count":1779,
			"type":"VEC2"
		},
		{
			"bufferView":15,
			"componentType":5123,
			"count":5052,
			"type":"SCALAR"
		}
	],
	"bufferViews":[
		{
			"buffer":0,
			"byteLength":756,
			"byteOffset":0,
			"target":34962
		},
		{
			"buffer":0,
			"byteLength":756,
			"byteOffset":756,
			"target":34962
		},
		{
			"buffer":0,
			"byteLength":504,
			"byteOffset":1512,
			"target":34962
		},
		{
			"buffer":0,
			"byteLength":480,
			"byteOffset":2016,
			"target":34963
		},
		{
			"buffer":0,
			"byteLength":4440,
			"byteOffset":2496,
			"target":34962
		},
		{
			"buffer":0,
			"byteLength":4440,
			"byteOffset":6936,
			"target":34962
		},
		{
			"buffer":0,
			"byteLength":2960,
			"byteOffset":11376,
			"target":34962
		},
		{
			"buffer":0,
			"byteLength":3432,
			"byteOffset":14336,
			"target":34963
		},
		{
			"buffer":0,
			"byteLength":3672,
			"byteOffset":17768,
			"target":34962
		},
		{
			"buffer":0,
			"byteLength":3672,
			"byteOffset":21440,
			"target":34962
		},
		{
			"buffer":0,
			"byteLength":2448,
			"byteOffset":25112,
			"target":34962
		},
		{
			"buffer":0,
			"byteLength":2448,
			"byteOffset":27560,
			"target":34963
		},
		{
			"buffer":0,
			"byteLength":21348,
			"byteOffset":30008,
			"target":34962
		},
		{
			"buffer":0,
			"byteLength":21348,
			"byteOffset":51356,
			"target":34962
		},
		{
			"buffer":0,
			"byteLength":14232,
			"byteOffset":72704,
			"target":34962
		},
		{
			"buffer":0,
			"byteLength":10104,
			"byteOffset":86936,
			"target":34963
		}
	],
	"buffers":[
		{
			"byteLength":97040,
			"uri":"data:application/octet-stream;base64,"
		}
	]
}
