{
	"asset":{
		"generator":"Khronos glTF Blender I/O v3.6.27",
		"version":"2.0"
	},
	"scene":0,
	"scenes":[
		{
			"name":"Scene",
			"nodes":[
				0
			]
		}
	],
	"nodes":[
		{
			"mesh":0,
			"name":"tronc.002",
			"translation":[
				30.552082061767578,
				0,
				0
			]
		}
	],
	"materials":[
		{
			"doubleSided":true,
			"name":"bark",
			"pbrMetallicRoughness":{
				"baseColorFactor":[
					0.12875008583068848,
					0.08857899159193039,
					0.0642656534910202,
					1
				],
				"metallicFactor":0
			}
		},
		{
			"doubleSided":true,
			"name":"coconut",
			"pbrMetallicRoughness":{
				"baseColorFactor":[
					0.13914230465888977,
					0.03885985538363457,
					0.015249106101691723,
					1
				],
				"metallicFactor":0
			}
		},
		{
			"doubleSided":true,
			"name":"leaf",
			"pbrMetallicRoughness":{
				"baseColorFactor":[
					0.07227158546447754,
					0.3563999831676483,
					0.009721320122480392,
					1
				],
				"metallicFactor":0.08636363595724106,
				"roughnessFactor":0.7454545497894287
			}
		}
	],
	"meshes":[
		{
			"name":"Cube.003",
			"primitives":[
				{
					"attributes":{
						"POSITION":0,
						"NORMAL":1,
						"TEXCOORD_0":2
					},
					"indices":3,
					"material":0
				},
				{
					"attributes":{
						"POSITION":4,
						"NORMAL":5,
						"TEXCOORD_0":6
					},
					"indices":7,
					"material":1
				},
				{
					"attributes":{
						"POSITION":8,
						"NORMAL":9,
						"TEXCOORD_0":10
					},
					"indices":11,
					"material":2
				}
			]
		}
	],
	"accessors":[
		{
			"bufferView":0,
			"componentType":5126,
			"count":2547,
			"max":[
				0.7945330739021301,
				10.953887939453125,
				0.7497044801712036
			],
			"min":[
				-0.7939328551292419,
				-0.15551623702049255,
				-6.997893333435059
			],
			"type":"VEC3"
		},
		{
			"bufferView":1,
			"componentType":5126,
			"count":2547,
			"type":"VEC3"
		},
		{
			"bufferView":2,
			"componentType":5126,
			"count":2547,
			"type":"VEC2"
		},
		{
			"bufferView":3,
			"componentType":5123,
			"count":4176,
			"type":"SCALAR"
		},
		{
			"bufferView":4,
			"componentType":5126,
			"count":634,
			"max":[
				1.1762923002243042,
				12.025407791137695,
				-5.636322021484375
			],
			"min":[
				-1.0838216543197632,
				10.081587791442871,
				-7.94041109085083
			],
			"type":"VEC3"
		},
		{
			"bufferView":5,
			"componentType":5126,
			"count":634,
			"type":"VEC3"
		},
		{
			"bufferView":6,
			"componentType":5126,
			"count":634,
			"type":"VEC2"
		},
		{
			"bufferView":7,
			"componentType":5123,
			"count":648,
			"type":"SCALAR"
		},
		{
			"bufferView":8,
			"componentType":5126,
			"count":3436,
			"max":[
				7.713286399841309,
				15.472761154174805,
				0.37856242060661316
			],
			"min":[
				-7.976591110229492,
				11.352596282958984,
				-14.920127868652344
			],
			"type":"VEC3"
		},
		{
			"bufferView":9,
			"componentType":5126,
			"count":3436,
			"type":"VEC3"
		},
		{
			"bufferView":10,
			"componentType":5126,
			"count":3436,
			"type":"VEC2"
		},
		{
			"bufferView":11,
			"componentType":5123,
			"count":6510,
			"type":"SCALAR"
		}
	],
	"bufferViews":[
		{
			"buffer":0,
			"byteLength":30564,
			"byteOffset":0,
			"target":34962
		},
		{
			"buffer":0,
			"byteLength":30564,
			"byteOffset":30564,
			"target":34962
		},
		{
			"buffer":0,
			"byteLength":20376,
			"byteOffset":61128,
			"target":34962
		},
		{
			"buffer":0,
			"byteLength":8352,
			"byteOffset":81504,
			"target":34963
		},
		{
			"buffer":0,
			"byteLength":7608,
			"byteOffset":89856,
			"target":34962
		},
		{
			"buffer":0,
			"byteLength":7608,
			"byteOffset":97464,
			"target":34962
		},
		{
			"buffer":0,
			"byteLength":5072,
			"byteOffset":105072,
			"target":34962
		},
		{
			"buffer":0,
			"byteLength":1296,
			"byteOffset":110144,
			"target":34963
		},
		{
			"buffer":0,
			"byteLength":41232,
			"byteOffset":111440,
			"target":34962
		},
		{
			"buffer":0,
			"byteLength":41232,
			"byteOffset":152672,
			"target":34962
		},
		{
			"buffer":0,
			"byteLength":27488,
			"byteOffset":193904,
			"target":34962
		},
		{
			"buffer":0,
			"byteLength":13020,
			"byteOffset":221392,
			"target":34963
		}
	],
	"buffers":[
		{
			"byteLength":234412,
			"uri":"data:application/octet-stream;base64,"
		}
	]
}
